<svg xmlns="http://www.w3.org/2000/svg" viewBox="0 0 784.4 190.6">
  <rect fill="#c9a24d" x="17" y="110.6" width="36" height="80"/>
  <rect fill="#0b1f3a" x="77" y="80.6" width="36" height="110"/>
  <rect fill="#0b1f3a" x="137" y="50.6" width="36" height="140"/>
  <rect fill="#0b1f3a" x="197" y="20.6" width="36" height="170"/>
  <polyline fill="none" stroke="#0b1f3a" stroke-linecap="round" stroke-linejoin="round" stroke-width="6" points="7 150.6 35 140.6 95 110.6 155 130.6 215 80.6 255 40.6"/>
  <circle fill="#0b1f3a" cx="7" cy="150.6" r="7"/>
  <circle fill="#c9a24d" cx="255" cy="40.6" r="7"/>
  <path fill="#0b1f3a" d="M330.156 162.232L302 190.600L414.836 190.600L414.836 162.232ZM302 21.240L302 25.897L302 152.282L330.156 123.914L330.156 25.897L330.156 21.240Z M566.202 21.240L566.202 122.644L453.577 21.240L453.577 64.003L594.358 190.600L594.358 190.388L594.358 190.177L594.358 21.240Z M732.598 21.240C709.099 21.240 689.199 29.708 672.898 46.221C656.386 62.733 647.918 82.633 647.918 105.920C647.918 129.419 656.386 149.107 672.898 165.619C689.411 182.132 709.099 190.600 732.598 190.600C756.096 190.600 775.785 182.132 792.297 165.619C809.021 149.319 817.489 129.419 817.489 105.920C817.489 82.633 809.021 62.733 792.297 46.221C775.785 29.708 756.096 21.240 732.598 21.240ZM732.598 49.608C748.052 49.608 761.389 55.112 772.397 66.120C783.406 77.129 788.910 90.466 788.910 105.920C788.910 121.374 783.617 134.711 772.397 145.931C761.389 156.940 748.052 162.232 732.598 162.232C717.144 162.232 703.595 156.940 692.586 145.931C681.578 134.923 676.286 121.374 676.286 105.920C676.286 90.466 681.578 77.129 692.586 66.120C703.807 54.900 717.144 49.608 732.598 49.608Z"/>
</svg>
